<!-- /public/forago-mushroom.svg -->
<svg xmlns="http://www.w3.org/2000/svg" viewBox="0 0 64 64" role="img" aria-label="Forago mushroom">
  <!-- Cap shadow edge -->
  <path
    d="M10.5 30.8C10.5 19.2 20.7 10 32 10s21.5 9.2 21.5 20.8c0 2.3-1.9 4.2-4.2 4.2H14.7c-2.3 0-4.2-1.9-4.2-4.2Z"
    fill="#C81D25"
  />

  <!-- Cap highlight -->
  <path
    d="M16 24.5C18.9 17.2 25.1 13 32 13c6.9 0 13.1 4.2 16 11.5c.6 1.5-.6 3-2.2 3H20.2c-1.6 0-2.8-1.5-2.2-3Z"
    fill="#E53935"
    opacity="0.95"
  />

  <!-- Dots -->
  <g fill="#F6F1E6">
    <circle cx="24.5" cy="22.2" r="3.2"/>
    <circle cx="35.8" cy="19.8" r="2.7"/>
    <circle cx="42.5" cy="24.1" r="2.4"/>
    <circle cx="30.2" cy="26.2" r="2.2"/>
  </g>

  <!-- Stem -->
  <path
    d="M24 35h16v13.2C40 53.2 36.2 56 32 56s-8-2.8-8-7.8V35Z"
    fill="#F5E6C8"
  />

  <!-- Stem shading -->
  <path
    d="M33.5 35h6.5v13.2c0 5-3.8 7.8-8 7.8c-.9 0-1.8-.1-2.6-.4c3-.7 4.6-3 4.6-7.4V35Z"
    fill="#E7D3B0"
    opacity="0.9"
  />

  <!-- Ground hint -->
  <path
    d="M18 56c4.2-1.6 8.8-2.4 14-2.4S41.8 54.4 46 56"
    stroke="#2A2A2A"
    stroke-opacity="0.12"
    stroke-width="2"
    stroke-linecap="round"
  />
</svg>